<svg width="34" height="36" viewBox="0 0 34 36" fill="none" xmlns="http://www.w3.org/2000/svg">
<path d="M17.7863 0C7.96324 0 0 8.05893 0 18C0 27.9411 7.96324 36 17.7863 36H33.7173V0H17.7863ZM25.8824 25.6562C21.7045 29.8844 14.9305 29.8844 10.7526 25.6562C6.57462 21.4281 6.57462 14.5727 10.7526 10.3438C14.9305 6.11564 21.7045 6.11564 25.8824 10.3438L33.4477 18L25.8824 25.6562ZM23.0878 18C23.0878 20.6662 20.9516 22.828 18.3171 22.828C15.6826 22.828 13.5464 20.6662 13.5464 18C13.5464 15.3338 15.6826 13.172 18.3171 13.172C20.9516 13.172 23.0878 15.3338 23.0878 18Z" fill="#00B5D8"/>
</svg>
