<svg width="31" height="31" viewBox="0 0 31 31" fill="none" xmlns="http://www.w3.org/2000/svg">
<g clip-path="url(#clip0_108_489)">
<path d="M0 23.25C0 24.1635 0.362896 25.0396 1.00885 25.6856C1.65481 26.3315 2.53092 26.6944 3.44444 26.6944H27.5556C28.4691 26.6944 29.3452 26.3315 29.9911 25.6856C30.6371 25.0396 31 24.1635 31 23.25V18.9444H0V23.25Z" fill="#138808"/>
<path d="M31 12.0556V7.75003C31 6.83651 30.6371 5.9604 29.9911 5.31444C29.3452 4.66848 28.4691 4.30559 27.5556 4.30559H3.44444C2.53092 4.30559 1.65481 4.66848 1.00885 5.31444C0.362896 5.9604 0 6.83651 0 7.75003L0 12.0556H31Z" fill="#FF9933"/>
<path d="M0 11.7688H31V19.232H0V11.7688Z" fill="#F7F7F7"/>
<path d="M15.5001 18.9445C17.4024 18.9445 18.9446 17.4023 18.9446 15.5C18.9446 13.5977 17.4024 12.0556 15.5001 12.0556C13.5978 12.0556 12.0557 13.5977 12.0557 15.5C12.0557 17.4023 13.5978 18.9445 15.5001 18.9445Z" fill="#000080"/>
<path d="M15.5 18.4062C17.1051 18.4062 18.4062 17.1051 18.4062 15.5C18.4062 13.8949 17.1051 12.5938 15.5 12.5938C13.8949 12.5938 12.5938 13.8949 12.5938 15.5C12.5938 17.1051 13.8949 18.4062 15.5 18.4062Z" fill="#F7F7F7"/>
<path d="M15.5858 14.4236L15.4997 14.9834L15.4136 14.4236L15.4997 12.7445L15.5858 14.4236ZM14.7867 12.8383L15.138 14.4822L15.3662 15.0006L15.3042 14.4383L14.7867 12.8383ZM14.1219 13.1139L14.8866 14.6105L15.2414 15.0523L15.0364 14.5244L14.1219 13.1139ZM13.551 13.5513L14.6773 14.7999L15.1346 15.1349L14.7996 14.6777L13.551 13.5513ZM13.1136 14.1223L14.5241 15.0368L15.0519 15.2417L14.6102 14.8869L13.1136 14.1223ZM12.838 14.787L14.4379 15.3046L15.0003 15.3666L14.4819 15.1384L12.838 14.787ZM12.7441 15.5L14.4233 15.5861L14.983 15.5L14.4233 15.4139L12.7441 15.5ZM12.838 16.213L14.4819 15.8617L15.0003 15.6335L14.4379 15.6955L12.838 16.213ZM13.1136 16.8778L14.6102 16.1131L15.0519 15.7584L14.5241 15.9633L13.1136 16.8778ZM13.551 17.4487L14.7996 16.3224L15.1346 15.8651L14.6773 16.2001L13.551 17.4487ZM14.1219 17.8862L15.0364 16.4757L15.2414 15.9478L14.8866 16.3896L14.1219 17.8862ZM14.7867 18.1617L15.3042 16.5618L15.3662 15.9995L15.138 16.5179L14.7867 18.1617ZM15.4997 18.2556L15.5858 16.5764L15.4997 16.0167L15.4136 16.5764L15.4997 18.2556ZM16.2127 18.1617L15.8614 16.5179L15.6332 15.9995L15.6952 16.5618L16.2127 18.1617ZM16.8775 17.8862L16.1128 16.3896L15.758 15.9478L15.963 16.4757L16.8775 17.8862ZM17.4484 17.4487L16.3221 16.2001L15.8648 15.8651L16.1998 16.3224L17.4484 17.4487ZM17.8858 16.8778L16.4753 15.9633L15.9475 15.7584L16.3892 16.1131L17.8858 16.8778ZM18.1614 16.213L16.5614 15.6955L15.9991 15.6335L16.5175 15.8617L18.1614 16.213ZM18.2553 15.5L16.5761 15.4139L16.0164 15.5L16.5761 15.5861L18.2553 15.5ZM18.1614 14.787L16.5175 15.1384L15.9991 15.3666L16.5614 15.3046L18.1614 14.787ZM17.8858 14.1223L16.3892 14.8869L15.9475 15.2417L16.4753 15.0368L17.8858 14.1223ZM17.4484 13.5513L16.1998 14.6777L15.8648 15.1349L16.3221 14.7999L17.4484 13.5513ZM16.8775 13.1139L15.963 14.5244L15.758 15.0523L16.1128 14.6105L16.8775 13.1139ZM16.2127 12.8383L15.6952 14.4383L15.6332 15.0006L15.8614 14.4822L16.2127 12.8383Z" fill="#6666B3"/>
<path d="M15.1214 12.7952C15.2166 12.7952 15.2937 12.7181 15.2937 12.623C15.2937 12.5279 15.2166 12.4508 15.1214 12.4508C15.0263 12.4508 14.9492 12.5279 14.9492 12.623C14.9492 12.7181 15.0263 12.7952 15.1214 12.7952Z" fill="#000080"/>
<path d="M14.389 12.9916C14.4841 12.9916 14.5612 12.9145 14.5612 12.8194C14.5612 12.7243 14.4841 12.6472 14.389 12.6472C14.2939 12.6472 14.2168 12.7243 14.2168 12.8194C14.2168 12.9145 14.2939 12.9916 14.389 12.9916Z" fill="#000080"/>
<path d="M13.7337 13.3696C13.8289 13.3696 13.906 13.2925 13.906 13.1974C13.906 13.1022 13.8289 13.0251 13.7337 13.0251C13.6386 13.0251 13.5615 13.1022 13.5615 13.1974C13.5615 13.2925 13.6386 13.3696 13.7337 13.3696Z" fill="#000080"/>
<path d="M13.1976 13.9052C13.2927 13.9052 13.3698 13.8281 13.3698 13.733C13.3698 13.6379 13.2927 13.5608 13.1976 13.5608C13.1025 13.5608 13.0254 13.6379 13.0254 13.733C13.0254 13.8281 13.1025 13.9052 13.1976 13.9052Z" fill="#000080"/>
<path d="M12.8197 14.5614C12.9148 14.5614 12.9919 14.4843 12.9919 14.3892C12.9919 14.2941 12.9148 14.2169 12.8197 14.2169C12.7246 14.2169 12.6475 14.2941 12.6475 14.3892C12.6475 14.4843 12.7246 14.5614 12.8197 14.5614Z" fill="#000080"/>
<path d="M12.6234 15.2933C12.7185 15.2933 12.7956 15.2162 12.7956 15.1211C12.7956 15.026 12.7185 14.9489 12.6234 14.9489C12.5283 14.9489 12.4512 15.026 12.4512 15.1211C12.4512 15.2162 12.5283 15.2933 12.6234 15.2933Z" fill="#000080"/>
<path d="M12.6234 16.0511C12.7185 16.0511 12.7956 15.974 12.7956 15.8789C12.7956 15.7838 12.7185 15.7067 12.6234 15.7067C12.5283 15.7067 12.4512 15.7838 12.4512 15.8789C12.4512 15.974 12.5283 16.0511 12.6234 16.0511Z" fill="#000080"/>
<path d="M12.8197 16.783C12.9148 16.783 12.9919 16.7059 12.9919 16.6108C12.9919 16.5157 12.9148 16.4386 12.8197 16.4386C12.7246 16.4386 12.6475 16.5157 12.6475 16.6108C12.6475 16.7059 12.7246 16.783 12.8197 16.783Z" fill="#000080"/>
<path d="M13.1976 17.4393C13.2927 17.4393 13.3698 17.3622 13.3698 17.267C13.3698 17.1719 13.2927 17.0948 13.1976 17.0948C13.1025 17.0948 13.0254 17.1719 13.0254 17.267C13.0254 17.3622 13.1025 17.4393 13.1976 17.4393Z" fill="#000080"/>
<path d="M13.7337 17.9748C13.8289 17.9748 13.906 17.8977 13.906 17.8026C13.906 17.7075 13.8289 17.6304 13.7337 17.6304C13.6386 17.6304 13.5615 17.7075 13.5615 17.8026C13.5615 17.8977 13.6386 17.9748 13.7337 17.9748Z" fill="#000080"/>
<path d="M14.389 18.3528C14.4841 18.3528 14.5612 18.2757 14.5612 18.1806C14.5612 18.0855 14.4841 18.0084 14.389 18.0084C14.2939 18.0084 14.2168 18.0855 14.2168 18.1806C14.2168 18.2757 14.2939 18.3528 14.389 18.3528Z" fill="#000080"/>
<path d="M15.1214 18.5492C15.2166 18.5492 15.2937 18.4721 15.2937 18.377C15.2937 18.2818 15.2166 18.2047 15.1214 18.2047C15.0263 18.2047 14.9492 18.2818 14.9492 18.377C14.9492 18.4721 15.0263 18.5492 15.1214 18.5492Z" fill="#000080"/>
<path d="M15.8793 18.5492C15.9744 18.5492 16.0515 18.4721 16.0515 18.377C16.0515 18.2818 15.9744 18.2047 15.8793 18.2047C15.7841 18.2047 15.707 18.2818 15.707 18.377C15.707 18.4721 15.7841 18.5492 15.8793 18.5492Z" fill="#000080"/>
<path d="M16.6117 18.3528C16.7068 18.3528 16.7839 18.2757 16.7839 18.1806C16.7839 18.0855 16.7068 18.0084 16.6117 18.0084C16.5166 18.0084 16.4395 18.0855 16.4395 18.1806C16.4395 18.2757 16.5166 18.3528 16.6117 18.3528Z" fill="#000080"/>
<path d="M17.2669 17.9748C17.3621 17.9748 17.4392 17.8977 17.4392 17.8026C17.4392 17.7075 17.3621 17.6304 17.2669 17.6304C17.1718 17.6304 17.0947 17.7075 17.0947 17.8026C17.0947 17.8977 17.1718 17.9748 17.2669 17.9748Z" fill="#000080"/>
<path d="M17.8031 17.4393C17.8982 17.4393 17.9753 17.3622 17.9753 17.267C17.9753 17.1719 17.8982 17.0948 17.8031 17.0948C17.708 17.0948 17.6309 17.1719 17.6309 17.267C17.6309 17.3622 17.708 17.4393 17.8031 17.4393Z" fill="#000080"/>
<path d="M18.181 16.783C18.2761 16.783 18.3532 16.7059 18.3532 16.6108C18.3532 16.5157 18.2761 16.4386 18.181 16.4386C18.0859 16.4386 18.0088 16.5157 18.0088 16.6108C18.0088 16.7059 18.0859 16.783 18.181 16.783Z" fill="#000080"/>
<path d="M18.3773 16.0511C18.4724 16.0511 18.5495 15.974 18.5495 15.8789C18.5495 15.7838 18.4724 15.7067 18.3773 15.7067C18.2822 15.7067 18.2051 15.7838 18.2051 15.8789C18.2051 15.974 18.2822 16.0511 18.3773 16.0511Z" fill="#000080"/>
<path d="M18.3773 15.2933C18.4724 15.2933 18.5495 15.2162 18.5495 15.1211C18.5495 15.026 18.4724 14.9489 18.3773 14.9489C18.2822 14.9489 18.2051 15.026 18.2051 15.1211C18.2051 15.2162 18.2822 15.2933 18.3773 15.2933Z" fill="#000080"/>
<path d="M18.181 14.5614C18.2761 14.5614 18.3532 14.4843 18.3532 14.3892C18.3532 14.2941 18.2761 14.2169 18.181 14.2169C18.0859 14.2169 18.0088 14.2941 18.0088 14.3892C18.0088 14.4843 18.0859 14.5614 18.181 14.5614Z" fill="#000080"/>
<path d="M17.8031 13.9052C17.8982 13.9052 17.9753 13.8281 17.9753 13.733C17.9753 13.6379 17.8982 13.5608 17.8031 13.5608C17.708 13.5608 17.6309 13.6379 17.6309 13.733C17.6309 13.8281 17.708 13.9052 17.8031 13.9052Z" fill="#000080"/>
<path d="M17.2669 13.3696C17.3621 13.3696 17.4392 13.2925 17.4392 13.1974C17.4392 13.1022 17.3621 13.0251 17.2669 13.0251C17.1718 13.0251 17.0947 13.1022 17.0947 13.1974C17.0947 13.2925 17.1718 13.3696 17.2669 13.3696Z" fill="#000080"/>
<path d="M16.6117 12.9916C16.7068 12.9916 16.7839 12.9145 16.7839 12.8194C16.7839 12.7243 16.7068 12.6472 16.6117 12.6472C16.5166 12.6472 16.4395 12.7243 16.4395 12.8194C16.4395 12.9145 16.5166 12.9916 16.6117 12.9916Z" fill="#000080"/>
<path d="M15.8793 12.7952C15.9744 12.7952 16.0515 12.7181 16.0515 12.623C16.0515 12.5279 15.9744 12.4508 15.8793 12.4508C15.7841 12.4508 15.707 12.5279 15.707 12.623C15.707 12.7181 15.7841 12.7952 15.8793 12.7952Z" fill="#000080"/>
<path d="M15.5006 16.275C15.9286 16.275 16.2756 15.928 16.2756 15.5C16.2756 15.072 15.9286 14.725 15.5006 14.725C15.0726 14.725 14.7256 15.072 14.7256 15.5C14.7256 15.928 15.0726 16.275 15.5006 16.275Z" fill="#000080"/>
</g>
<defs>
<clipPath id="clip0_108_489">
<rect width="31" height="31" fill="white"/>
</clipPath>
</defs>
</svg>
